# xmcd CD database file
#
# Track frame offsets:
#	150
#	29754
#	50264
#	70362
#	91197
#	115366
#	132148
#	164734
#	189288
#	202650
#	224882
#
# Disc length: 3172 seconds
#
# Revision: 0
# Processed by: cddbd v1.5.2PL0 Copyright (c) Steve Scherf et al.
# Submitted via: CDex 1.70beta2
#
DISCID=a30c620b
DTITLE=Stellanovas, The - Cafe Jazz
DYEAR=2005
DGENRE=Jazz
TTITLE0=Rainy Waltz
TTITLE1=Blue Champagne
TTITLE2=Daydream
TTITLE3=Cookin' at the Continental
TTITLE4=Yesterdays
TTITLE5=Remember Me
TTITLE6=Willow Weep for Me
TTITLE7=Another Day
TTITLE8=Tin Tile
TTITLE9=Woodrow Village
TTITLE10=Your Shakra's Showing
EXTD=YEAR: 2005
EXTT0=
EXTT1=
EXTT2=
EXTT3=
EXTT4=
EXTT5=
EXTT6=
EXTT7=
EXTT8=
EXTT9=
EXTT10=
PLAYORDER=
